<svg width="50" height="50" viewBox="0 0 50 50" fill="none" xmlns="http://www.w3.org/2000/svg">
<path d="M44.8801 21.2236H43.2348V21.1388H24.8513V29.3092H36.3951C34.711 34.0654 30.1856 37.4797 24.8513 37.4797C18.0832 37.4797 12.5957 31.9922 12.5957 25.224C12.5957 18.4559 18.0832 12.9684 24.8513 12.9684C27.9755 12.9684 30.8178 14.147 32.9819 16.0721L38.7594 10.2946C35.1113 6.89471 30.2316 4.79797 24.8513 4.79797C13.5711 4.79797 4.42529 13.9437 4.42529 25.224C4.42529 36.5043 13.5711 45.6501 24.8513 45.6501C36.1316 45.6501 45.2774 36.5043 45.2774 25.224C45.2774 23.8545 45.1365 22.5176 44.8801 21.2236Z" fill="#FFC107"/>
<path d="M6.7804 15.7167L13.4914 20.6384C15.3072 16.1426 19.705 12.9684 24.8513 12.9684C27.9755 12.9684 30.8178 14.147 32.9819 16.0721L38.7594 10.2946C35.1113 6.89471 30.2315 4.79797 24.8513 4.79797C17.0057 4.79797 10.2018 9.22736 6.7804 15.7167Z" fill="#FF3D00"/>
<path d="M24.8512 45.6501C30.1272 45.6501 34.9212 43.6309 38.5458 40.3475L32.2239 34.9979C30.1043 36.6099 27.5142 37.4818 24.8512 37.4796C19.5383 37.4796 15.0273 34.092 13.3278 29.3644L6.66687 34.4964C10.0474 41.1114 16.9126 45.6501 24.8512 45.6501Z" fill="#4CAF50"/>
<path d="M44.88 21.2236H43.2346V21.1388H24.8512V29.3092H36.395C35.5894 31.5728 34.1383 33.5509 32.2209 34.9989L32.224 34.9968L38.5458 40.3464C38.0985 40.7529 45.2772 35.437 45.2772 25.224C45.2772 23.8544 45.1363 22.5176 44.88 21.2236Z" fill="#1976D2"/>
</svg>
