<svg width="26" height="26" viewBox="0 0 26 26" fill="none" xmlns="http://www.w3.org/2000/svg">
<path d="M19.916 12.0085H5.6178C4.4897 12.0085 3.5752 12.9231 3.5752 14.0511V21.2003C3.5752 22.3284 4.4897 23.2429 5.6178 23.2429H19.916C21.0441 23.2429 21.9586 22.3284 21.9586 21.2003V14.0511C21.9586 12.9231 21.0441 12.0085 19.916 12.0085Z" stroke="#475461" stroke-opacity="0.5" stroke-width="2.0426" stroke-linecap="round" stroke-linejoin="round"/>
<path d="M7.6604 12.0085V7.92328C7.6604 6.56895 8.19841 5.27009 9.15606 4.31244C10.1137 3.35478 11.4126 2.81677 12.7669 2.81677C14.1212 2.81677 15.4201 3.35478 16.3778 4.31244C17.3354 5.27009 17.8734 6.56895 17.8734 7.92328V12.0085" stroke="#475461" stroke-opacity="0.5" stroke-width="2.0426" stroke-linecap="round" stroke-linejoin="round"/>
</svg>
