<svg width="27" height="26" viewBox="0 0 27 26" fill="none" xmlns="http://www.w3.org/2000/svg">
<g clip-path="url(#clip0)">
<path d="M19.5086 16.7617C21.0596 14.6452 21.7543 12.0212 21.4537 9.41455C21.1531 6.8079 19.8793 4.41088 17.8872 2.70304C15.8952 0.995201 13.3317 0.102498 10.7098 0.203528C8.08778 0.304558 5.60063 1.39187 3.7459 3.24793C1.89116 5.10399 0.805632 7.59192 0.706478 10.214C0.607325 12.836 1.50186 15.3988 3.21112 17.3897C4.92039 19.3805 7.31832 20.6525 9.92518 20.9513C12.532 21.2501 15.1556 20.5535 17.2709 19.001H17.2693C17.3174 19.0651 17.3686 19.1259 17.4263 19.1852L23.5932 25.3521C23.8935 25.6526 24.301 25.8216 24.7259 25.8217C25.1508 25.8219 25.5583 25.6532 25.8589 25.3529C26.1595 25.0525 26.3284 24.6451 26.3286 24.2202C26.3287 23.7953 26.1601 23.3877 25.8597 23.0871L19.6928 16.9203C19.6356 16.8623 19.574 16.8088 19.5086 16.7601V16.7617ZM19.9219 10.6044C19.9219 11.7614 19.694 12.907 19.2513 13.9758C18.8086 15.0447 18.1596 16.0159 17.3416 16.8339C16.5235 17.652 15.5523 18.3009 14.4834 18.7436C13.4146 19.1864 12.269 19.4143 11.1121 19.4143C9.95516 19.4143 8.80956 19.1864 7.74071 18.7436C6.67185 18.3009 5.70066 17.652 4.88259 16.8339C4.06453 16.0159 3.4156 15.0447 2.97287 13.9758C2.53013 12.907 2.30226 11.7614 2.30226 10.6044C2.30226 8.26793 3.23043 6.02712 4.8826 4.37495C6.53476 2.72279 8.77557 1.79462 11.1121 1.79462C13.4486 1.79462 15.6894 2.72279 17.3416 4.37495C18.9937 6.02712 19.9219 8.26793 19.9219 10.6044Z" fill="#454545" fill-opacity="0.5"/>
</g>
<defs>
<clipPath id="clip0">
<rect width="25.6286" height="25.6286" fill="white" transform="translate(0.700256 0.193481)"/>
</clipPath>
</defs>
</svg>
